<?xml version="1.0" standalone="no"?>
<!DOCTYPE svg PUBLIC "-//W3C//DTD SVG 20010904//EN"
 "http://www.w3.org/TR/2001/REC-SVG-20010904/DTD/svg10.dtd">
<svg version="1.0" xmlns="http://www.w3.org/2000/svg"
 width="545.000000pt" height="802.000000pt" viewBox="0 0 545.000000 802.000000"
 preserveAspectRatio="xMidYMid meet">

<g transform="translate(0.000000,802.000000) scale(0.100000,-0.100000)"
fill="#000000" stroke="none">
<path d="M2028 8013 c6 -2 18 -2 25 0 6 3 1 5 -13 5 -14 0 -19 -2 -12 -5z"/>
<path d="M2158 8013 c7 -3 16 -2 19 1 4 3 -2 6 -13 5 -11 0 -14 -3 -6 -6z"/>
<path d="M2358 8013 c6 -2 18 -2 25 0 6 3 1 5 -13 5 -14 0 -19 -2 -12 -5z"/>
<path d="M2613 8013 c15 -2 39 -2 55 0 15 2 2 4 -28 4 -30 0 -43 -2 -27 -4z"/>
<path d="M2758 8013 c6 -2 18 -2 25 0 6 3 1 5 -13 5 -14 0 -19 -2 -12 -5z"/>
<path d="M2888 8013 c7 -3 16 -2 19 1 4 3 -2 6 -13 5 -11 0 -14 -3 -6 -6z"/>
<path d="M3248 8013 c6 -2 18 -2 25 0 6 3 1 5 -13 5 -14 0 -19 -2 -12 -5z"/>
<path d="M3353 8013 c9 -2 23 -2 30 0 6 3 -1 5 -18 5 -16 0 -22 -2 -12 -5z"/>
<path d="M3478 8013 c7 -3 16 -2 19 1 4 3 -2 6 -13 5 -11 0 -14 -3 -6 -6z"/>
<path d="M3678 8013 c7 -3 16 -2 19 1 4 3 -2 6 -13 5 -11 0 -14 -3 -6 -6z"/>
<path d="M1666 7800 c-76 -10 -156 -22 -179 -25 l-40 -7 7 -82 c26 -317 36
-480 42 -683 6 -200 9 -235 24 -248 31 -28 273 -141 370 -173 221 -73 392 -97
624 -89 154 6 370 36 385 54 4 4 17 45 29 90 53 202 211 493 355 652 38 42 39
44 21 62 -36 35 -309 200 -431 260 -185 91 -363 147 -583 184 -150 26 -454 28
-624 5z"/>
<path d="M916 6674 c-22 -58 14 -249 66 -348 43 -80 197 -235 309 -309 107
-71 267 -147 379 -180 333 -100 943 -103 1255 -6 144 44 340 160 414 244 52
60 64 148 27 197 -11 16 -333 115 -430 133 l-35 7 -3 -63 -3 -64 -105 -27
c-199 -52 -280 -62 -505 -62 -226 -1 -299 9 -455 60 -97 32 -286 125 -328 161
-31 27 -32 29 -24 80 5 28 5 58 0 66 -16 29 -217 86 -389 111 -135 20 -165 20
-173 0z"/>
<path d="M908 5950 c-72 -9 -160 -44 -216 -87 -48 -36 -86 -121 -77 -173 10
-58 58 -122 141 -189 139 -112 281 -176 523 -235 230 -57 348 -69 563 -62 191
7 220 3 173 -28 -39 -26 -30 -33 33 -26 80 10 162 35 203 63 90 61 67 126 -76
212 -165 99 -284 99 -650 1 -154 -42 -224 -45 -366 -16 -201 41 -348 115 -414
209 -25 35 -30 52 -30 99 0 69 26 112 88 144 51 26 159 35 210 19 51 -17 97
-73 97 -117 0 -47 -45 -94 -90 -94 -34 0 -90 46 -90 74 0 30 -19 16 -26 -18
-18 -100 72 -184 189 -174 93 8 144 61 154 162 17 170 -115 262 -339 236z"/>
<path d="M3080 5751 c-85 -20 -202 -65 -242 -93 -38 -27 -53 -77 -35 -121 29
-68 155 -138 262 -145 61 -3 73 -1 93 17 46 45 16 125 -58 155 -62 24 -69 19
-25 -18 34 -29 38 -37 29 -53 -9 -14 -24 -18 -71 -18 -50 0 -66 5 -96 28 -79
60 -72 99 25 146 78 39 198 65 256 56 52 -8 107 -58 115 -107 7 -38 -5 -100
-24 -126 -38 -50 -139 -146 -174 -164 -65 -34 -144 -29 -246 17 -188 84 -191
85 -265 85 -66 0 -72 -2 -100 -32 -57 -62 -96 -118 -91 -132 7 -18 228 -91
317 -105 201 -33 359 15 506 152 111 104 214 272 214 350 0 38 -38 87 -83 107
-55 25 -201 25 -307 1z"/>
<path d="M4759 5598 c-118 -141 -159 -201 -159 -235 0 -22 4 -23 68 -23 l68 0
27 98 c28 103 49 203 44 209 -2 2 -24 -20 -48 -49z"/>
<path d="M4585 5312 c-34 -21 -44 -39 -80 -136 -42 -113 -112 -412 -99 -425 2
-2 29 13 60 33 48 32 55 41 48 59 -17 50 -16 155 2 192 22 47 76 83 135 91 26
3 52 10 59 14 20 12 43 127 30 151 -22 41 -104 52 -155 21z"/>
<path d="M4635 5103 c-37 -9 -83 -52 -95 -89 -16 -47 -7 -150 14 -173 10 -11
52 -25 103 -36 58 -12 95 -26 109 -40 12 -12 31 -57 44 -110 18 -64 29 -89 42
-93 10 -2 18 -7 18 -11 0 -10 -48 -66 -52 -61 -2 3 -20 30 -40 62 -20 31 -58
73 -83 95 -65 54 -164 113 -192 113 -33 0 -72 -22 -109 -62 -44 -47 -54 -69
-54 -127 0 -56 8 -64 75 -75 77 -13 134 -37 160 -67 28 -35 34 -60 8 -37 -55
48 -186 84 -263 72 -53 -9 -71 -35 -77 -119 -7 -82 5 -101 98 -162 39 -24 69
-47 66 -49 -2 -2 -32 8 -67 22 -34 14 -68 23 -75 20 -20 -7 -30 -111 -16 -157
7 -22 23 -46 37 -55 39 -26 131 -44 225 -44 l86 0 97 94 c53 52 96 99 96 105
0 8 5 8 18 0 57 -36 152 53 152 140 0 49 10 61 81 97 88 44 92 55 50 186 -20
64 -37 150 -47 237 -9 75 -22 146 -30 158 -23 36 -64 51 -165 58 -79 6 -101 5
-127 -9 -39 -20 -41 -13 -5 18 26 22 27 25 13 51 -12 22 -60 58 -72 54 -2 -1
-12 -4 -23 -6z"/>
<path d="M4373 4995 c-53 -23 -75 -68 -71 -146 4 -70 31 -130 50 -111 9 9 56
164 74 245 7 31 -3 34 -53 12z"/>
<path d="M1220 4949 c-34 -22 -93 -64 -129 -93 -206 -165 -641 -700 -641 -789
0 -8 13 -17 29 -20 98 -20 316 -141 491 -273 110 -83 324 -290 335 -324 10
-31 6 -33 -215 -105 -191 -63 -270 -97 -270 -116 0 -6 78 -108 172 -227 511
-643 732 -980 928 -1419 158 -351 236 -575 447 -1282 40 -135 104 -292 116
-288 7 2 13 30 14 68 8 206 73 577 154 873 121 442 392 1205 714 2014 64 161
115 300 113 310 -2 12 -42 29 -149 62 -81 25 -154 51 -163 59 -13 11 -15 24
-10 60 38 257 231 522 476 652 105 56 110 73 41 141 -167 161 -729 549 -813
560 -29 4 -29 12 -1 -141 58 -314 50 -733 -24 -1221 -49 -326 -104 -588 -241
-1135 -47 -187 -101 -407 -120 -490 -60 -261 -63 -265 -83 -140 -28 167 -96
494 -138 660 -113 447 -303 911 -587 1433 -176 325 -254 498 -301 673 -35 131
-48 279 -34 396 10 81 9 96 -5 118 -9 14 -22 25 -30 25 -7 0 -41 -18 -76 -41z"/>
<path d="M5006 4278 c-8 -18 -22 -52 -32 -76 -21 -53 -47 -75 -168 -146 -51
-30 -115 -78 -142 -106 -59 -62 -99 -75 -206 -66 l-78 6 0 -31 c0 -33 30 -68
90 -104 36 -22 58 -50 48 -61 -4 -3 -22 6 -41 20 -43 33 -47 33 -47 -6 0 -17
-7 -54 -16 -83 -15 -47 -15 -56 0 -108 10 -36 25 -62 40 -72 31 -20 178 -38
246 -30 101 12 143 38 238 148 161 184 183 212 212 272 46 92 77 335 50 386
-11 19 -12 18 -48 -8 -20 -15 -41 -30 -45 -33 -4 -4 -3 -27 3 -52 14 -53 2
-110 -31 -152 -40 -51 -41 -42 -13 112 9 47 13 100 9 120 -11 64 -26 102 -41
102 -8 0 -21 -15 -28 -32z m-82 -352 c-9 -53 -75 -148 -129 -190 -39 -29 -56
-36 -94 -36 -50 0 -103 26 -121 59 -12 24 -13 23 55 21 104 -2 191 45 256 139
19 27 35 48 37 46 2 -2 0 -19 -4 -39z"/>
</g>
</svg>
